<?xml version="1.0" encoding="UTF-8" standalone="no"?><!DOCTYPE svg PUBLIC "-//W3C//DTD SVG 1.1//EN" "http://www.w3.org/Graphics/SVG/1.1/DTD/svg11.dtd"><svg width="100%" height="100%" viewBox="0 0 4734 944" version="1.1" xmlns="http://www.w3.org/2000/svg" xmlns:xlink="http://www.w3.org/1999/xlink" xml:space="preserve" xmlns:serif="http://www.serif.com/" style="fill-rule:evenodd;clip-rule:evenodd;stroke-linejoin:round;stroke-miterlimit:2;"><g><path d="M445.395,130.308c14.776,-1.356 31.823,0.027 46.586,1.48c63.8,6.087 120.833,30.041 172.099,68.153c129.232,96.073 171.416,281.536 99.978,425.128c-10.794,21.694 -21.979,38.118 -36.381,57.375c-0.555,-32.306 -0.673,-64.618 -0.353,-96.928c-0.17,-39.959 0.088,-79.919 0.773,-119.873c-6.242,-6.054 -14.97,-12.979 -21.736,-18.885l-41.31,-36.322c-41.246,-36.872 -82.869,-73.317 -124.864,-109.333c-11.86,-10.206 -23.646,-20.498 -35.356,-30.876c-9.948,-8.816 -24.065,-22.834 -35.257,-28.401c-15.263,-7.644 -28.41,3.587 -38.927,13.25c-12.776,11.738 -26.178,23.034 -39.254,34.474l-112.084,98.589l-54.138,46.76c-42.314,36.473 -35.119,25.008 -34.537,81.074l0.085,62.544l0.032,67.082c0.008,7.917 -0.409,28.983 0.93,35.593c-44.818,-58.134 -67.538,-120.07 -71.363,-193.33c-9.774,-187.16 137.216,-349.495 325.076,-357.555Z" style="fill:#fff;fill-rule:nonzero;"/><path d="M458.567,397.666c3.082,1.842 12.228,9.751 15.346,12.388l30.706,26.237c33.371,28.413 66.508,57.097 99.41,86.05l-0.104,170.597c-0.01,28.234 0.738,60.379 -0.447,88.189c-6.838,3.274 -14.66,6.104 -21.794,8.648c0.867,-38.822 0.261,-79.319 0.442,-118.205c0.102,-21.918 1.085,-67.159 -3.302,-87.109c-4.556,-20.4 -14.037,-39.375 -27.615,-55.268c-25.154,-29.073 -54.519,-39.101 -91.571,-41.773c-30.963,-0.354 -62.198,12.307 -84.745,33.444c-16.261,15.073 -27.945,34.422 -33.711,55.831c-6.532,24.792 -4.66,59.773 -4.574,86.079l0.227,73.099c0.095,17.9 0.468,35.66 -0.156,53.557c-7.543,-3.382 -15.126,-6.672 -22.749,-9.869c-1.018,-59.714 0.413,-120.2 -0.154,-179.962c-0.231,-24.345 1.597,-52.296 -0.018,-75.844c4.919,-5.031 12.644,-11.367 18.11,-16.028l31.897,-27.158l94.8,-82.903Z" style="fill:#fff;fill-rule:nonzero;"/><path d="M458.633,300.391c2.277,0.404 5.651,3.388 7.432,4.994c17.416,15.709 35.117,31.061 52.841,46.42l159.121,137.847c1.532,19.206 0.666,46.951 0.594,66.979l-0.477,115.043c-0.1,19.978 -0.834,43.834 -0.027,63.562c-7.12,5.535 -14.308,10.98 -21.564,16.336c-1.46,-25.08 -0.593,-57.905 -0.617,-83.66l-0.085,-167.977c-22.68,-21.761 -51.575,-46.136 -75.425,-67.006l-120.88,-105.707c-2.662,0.913 -31.882,27.468 -36.2,31.255l-110.035,96.062c-15.569,13.501 -34.874,31.898 -50.713,43.921c-0.71,36.229 -0.116,74.558 -0.14,110.952l-0.354,140.898c-6.942,-4.834 -15.089,-11.786 -21.925,-17.167c-0.452,-26.997 0.047,-54.7 -0.017,-81.771l-0.543,-160.216c9.674,-9.458 24.032,-21.517 34.374,-30.672c29.155,-25.485 58.455,-50.806 87.897,-75.959l62.384,-54.383c10.712,-9.388 23.319,-20.975 34.36,-29.749Z" style="fill:#fff;fill-rule:nonzero;"/><g transform="matrix(472.871207,0,0,472.871207,2422.612228,707.989808)"></g><text x="1003.999px" y="707.99px" style="font-family:'SourceHanSansSC-Heavy', 'Source Han Sans SC', sans-serif;font-weight:900;font-size:472.871px;fill:#fff;">老古的</text><g transform="matrix(592.308442,0,0,592.308442,3670.599675,741.910498)"><path d="M0.078,-0l0,-0.7l0.145,0l0.402,0.489l-0.07,0l0,-0.489l0.174,0l0,0.7l-0.145,-0l-0.402,-0.489l0.07,0l0,0.489l-0.174,-0Z" style="fill:#fff;fill-rule:nonzero;"/></g><g transform="matrix(592.308442,0,0,592.308442,4148.831668,741.910498)"><path d="M0.037,-0l0,-0.112l0.425,-0.509l0.021,0.064l-0.438,0l0,-0.142l0.595,0l0,0.112l-0.425,0.509l-0.022,-0.064l0.461,0l0,0.142l-0.618,-0Z" style="fill:#fff;fill-rule:nonzero;"/></g><g transform="matrix(592.308442,0,0,592.308442,4547.971545,741.910498)"></g><g transform="matrix(592.308442,0,0,592.308442,2437.266341,741.910498)"><path d="M0.078,-0l0,-0.7l0.309,0c0.063,0 0.118,0.01 0.164,0.031c0.046,0.021 0.081,0.05 0.106,0.088c0.025,0.038 0.037,0.084 0.037,0.137c-0,0.052 -0.012,0.098 -0.037,0.136c-0.025,0.038 -0.06,0.068 -0.106,0.088c-0.046,0.021 -0.101,0.031 -0.164,0.031l-0.211,0l0.079,-0.078l0,0.267l-0.177,-0Zm0.177,-0.248l-0.079,-0.083l0.202,0c0.046,0 0.081,-0.01 0.104,-0.03c0.023,-0.02 0.035,-0.048 0.035,-0.084c0,-0.036 -0.012,-0.064 -0.035,-0.084c-0.023,-0.02 -0.058,-0.03 -0.104,-0.03l-0.202,0l0.079,-0.083l0,0.393Z" style="fill:#fff;fill-rule:nonzero;"/></g><g transform="matrix(592.308442,0,0,592.308442,2865.956413,741.910498)"><path d="M0.078,-0l0,-0.7l0.177,0l0,0.558l0.344,-0l0,0.142l-0.52,-0Z" style="fill:#fff;fill-rule:nonzero;"/></g><g transform="matrix(592.308442,0,0,592.308442,3228.324247,741.910498)"><path d="M-0.011,-0l0.311,-0.7l0.174,0l0.311,0.7l-0.184,-0l-0.251,-0.612l0.07,0l-0.251,0.612l-0.181,-0Zm0.162,-0.144l0.046,-0.132l0.353,0l0.046,0.132l-0.445,0Z" style="fill:#fff;fill-rule:nonzero;"/></g><g transform="matrix(592.308442,0,0,592.308442,3686.716796,741.910498)"></g></g></svg>